<?xml version="1.0" encoding="UTF-8" standalone="no"?>
<!-- Created with Inkscape (http://www.inkscape.org/) -->

<svg
   xmlns:dc="http://purl.org/dc/elements/1.1/"
   xmlns:cc="http://creativecommons.org/ns#"
   xmlns:rdf="http://www.w3.org/1999/02/22-rdf-syntax-ns#"
   xmlns:svg="http://www.w3.org/2000/svg"
   xmlns="http://www.w3.org/2000/svg"
   version="1.1"
   width="1052.3625"
   height="744.09998"
   id="svg3004"
   xml:space="preserve"><metadata
     id="metadata3010"><rdf:RDF><cc:Work
         rdf:about=""><dc:format>image/svg+xml</dc:format><dc:type
           rdf:resource="http://purl.org/dc/dcmitype/StillImage" /><dc:title></dc:title></cc:Work></rdf:RDF></metadata><defs
     id="defs3008"><clipPath
       id="clipPath3020"><path
         d="m 0,595.28 841.89,0 L 841.89,0 0,0 0,595.28 z"
         id="path3022" /></clipPath></defs><g
     transform="matrix(1.25,0,0,-1.25,0,744.1)"
     id="g3012"><path
       d="m 0,0 841.89,0 0,298.388 L 0,298.388 0,0 z"
       id="path3014"
       style="fill:#414950;fill-opacity:1;fill-rule:nonzero;stroke:none" /><g
       id="g3016"><g
         clip-path="url(#clipPath3020)"
         id="g3018"><g
           transform="translate(387.4346,394.3481)"
           id="g3024"><path
             d="m 0,0 0.485,0 c 0.082,0 0.157,-0.057 0.157,-0.142 l 0,-6.959 -0.487,0 C 0.073,-7.101 0,-7.032 0,-6.945 L 0,0 z m 0,3.155 0.495,0 c 0.087,0 0.147,-0.072 0.147,-0.143 l 0,-0.668 -0.499,0 C 0.056,2.344 0,2.401 0,2.485 l 0,0.67 z"
             id="path3026"
             style="fill:#808385;fill-opacity:1;fill-rule:nonzero;stroke:none" /></g><g
           transform="translate(395.3564,392.6294)"
           id="g3028"><path
             d="m 0,0 c 0,0.625 -0.508,1.137 -1.119,1.137 l -3.112,0 c -0.083,0 -0.153,-0.072 -0.153,-0.157 l 0,-6.206 c 0,-0.087 -0.071,-0.156 -0.159,-0.156 l -0.482,0 0,6.476 c 0,0.341 0.285,0.639 0.625,0.639 l 3.281,0 c 0.963,0 1.757,-0.809 1.757,-1.788 l 0,-5.327 -0.492,0 C 0.073,-5.382 0,-5.313 0,-5.226 L 0,0 z"
             id="path3030"
             style="fill:#808385;fill-opacity:1;fill-rule:nonzero;stroke:none" /></g><g
           transform="translate(406.3105,394.3623)"
           id="g3032"><path
             d="m 0,0 0,-6.477 c 0,-0.355 -0.281,-0.638 -0.638,-0.638 l -5.782,0 c -0.979,0 -1.76,0.795 -1.76,1.79 l 0,5.325 0.48,0 c 0.088,0 0.16,-0.071 0.16,-0.156 l 0,-5.242 c 0,-0.611 0.498,-1.122 1.12,-1.122 l 2.233,0 c -0.131,0.043 -0.23,0.2 -0.23,0.399 l 0,6.121 0.495,0 c 0.089,0 0.146,-0.071 0.146,-0.156 l 0,-6.107 c 0,-0.142 0.113,-0.257 0.252,-0.257 l 2.73,0 c 0.087,0 0.14,0.072 0.14,0.157 l 0,6.207 c 0,0.085 0.072,0.156 0.16,0.156 L 0,0 z"
             id="path3034"
             style="fill:#808385;fill-opacity:1;fill-rule:nonzero;stroke:none" /></g><g
           transform="translate(410.1543,393.7661)"
           id="g3036"><path
             d="m 0,0 c -0.611,0 -1.081,-0.511 -1.081,-1.137 l 0,-1.335 c 0,-0.084 0.061,-0.141 0.158,-0.156 l 4.248,0 0,1.491 C 3.325,-0.511 2.856,0 2.246,0 L 0,0 z m -1.717,-4.802 0,3.678 c 0,1.067 0.753,1.706 1.717,1.706 l 2.246,0 c 0.966,0 1.719,-0.639 1.719,-1.706 l 0,-1.93 c 0,-0.099 -0.069,-0.17 -0.158,-0.17 l -4.561,0 c -0.126,0 -0.239,0.071 -0.309,0.17 l -0.018,0 0,-1.733 c 0,-0.626 0.499,-1.122 1.123,-1.122 l 3.652,0 c 0.086,0 0.159,-0.07 0.159,-0.157 l 0,-0.453 -3.811,0 c -0.976,0 -1.759,0.639 -1.759,1.717"
             id="path3038"
             style="fill:#808385;fill-opacity:1;fill-rule:nonzero;stroke:none" /></g><g
           transform="translate(420.9551,389.9175)"
           id="g3040"><path
             d="m 0,0 -4.434,1.59 c -0.212,0.071 -0.382,0.313 -0.382,0.54 l 0,0.711 c 0,0.979 0.781,1.59 1.76,1.59 l 3.266,0 0,-0.426 C 0.21,3.919 0.14,3.849 0.054,3.849 l -3.11,0 c -0.624,0 -1.122,-0.397 -1.122,-1.022 l 0,-0.526 c 0,-0.087 0.071,-0.171 0.143,-0.2 L 0.367,0.511 C 0.579,0.439 0.751,0.199 0.751,-0.03 l 0,-1.079 c 0,-0.993 -0.794,-1.561 -1.761,-1.561 l -3.822,0 0,0.439 c 0,0.085 0.072,0.156 0.156,0.156 l 3.666,0 c 0.609,0 1.15,0.342 1.15,0.952 l 0,0.923 C 0.14,-0.114 0.067,-0.014 0,0"
             id="path3042"
             style="fill:#808385;fill-opacity:1;fill-rule:nonzero;stroke:none" /></g><g
           transform="translate(426.9912,387.686)"
           id="g3044"><path
             d="m 0,0 0,-0.439 -1.406,0 c -0.98,0 -1.76,0.795 -1.76,1.79 l 0,8.892 0.481,0 c 0.086,0 0.158,-0.074 0.158,-0.158 l 0,-3.707 c 0.013,0.157 0.197,0.27 0.398,0.27 l 1.73,0 0,-0.426 c 0,-0.086 -0.069,-0.156 -0.152,-0.156 l -1.976,0 0,-4.788 c 0,-0.611 0.497,-1.122 1.121,-1.122 l 1.266,0 C -0.067,0.156 0,0.085 0,0"
             id="path3046"
             style="fill:#808385;fill-opacity:1;fill-rule:nonzero;stroke:none" /></g><g
           transform="translate(428.7139,394.3623)"
           id="g3048"><path
             d="m 0,0 0.479,0 c 0.086,0 0.16,-0.071 0.16,-0.156 l 0,-5.242 c 0,-0.623 0.492,-1.122 1.119,-1.122 l 2.145,0 c 0.612,0 1.11,0.499 1.11,1.122 l 0,5.242 C 5.013,-0.071 5.082,0 5.166,0 l 0.485,0 0,-5.34 c 0,-0.98 -0.783,-1.775 -1.748,-1.775 l -2.145,0 C 0.781,-7.115 0,-6.32 0,-5.34 L 0,0 z"
             id="path3050"
             style="fill:#808385;fill-opacity:1;fill-rule:nonzero;stroke:none" /></g><g
           transform="translate(436.501,397.5029)"
           id="g3052"><path
             d="m 0,0 0.5,0 c 0.085,0 0.142,-0.072 0.142,-0.143 l 0,-0.668 -0.5,0 C 0.059,-0.811 0,-0.754 0,-0.669 L 0,0 z m -1.405,-13.281 c 0,0.084 0.071,0.156 0.156,0.156 l 0.194,0 c 0.613,0 1.114,0.496 1.114,1.122 l 0,8.848 0.496,0 c 0.087,0 0.142,-0.057 0.142,-0.141 l 0,-8.637 c 0,-0.994 -0.783,-1.789 -1.752,-1.789 l -0.35,0 0,0.441 z"
             id="path3054"
             style="fill:#808385;fill-opacity:1;fill-rule:nonzero;stroke:none" /></g><g
           transform="translate(447.541,394.3623)"
           id="g3056"><path
             d="m 0,0 0,-6.477 c 0,-0.355 -0.282,-0.638 -0.637,-0.638 l -5.779,0 c -0.98,0 -1.765,0.795 -1.765,1.79 l 0,5.325 0.485,0 c 0.087,0 0.157,-0.071 0.157,-0.156 l 0,-5.242 c 0,-0.611 0.494,-1.122 1.123,-1.122 l 2.228,0 c -0.129,0.043 -0.23,0.2 -0.23,0.399 l 0,6.121 0.502,0 c 0.083,0 0.144,-0.071 0.144,-0.156 l 0,-6.107 c 0,-0.142 0.112,-0.257 0.251,-0.257 l 2.728,0 c 0.085,0 0.143,0.072 0.143,0.157 l 0,6.207 C -0.65,-0.071 -0.578,0 -0.498,0 L 0,0 z"
             id="path3058"
             style="fill:#808385;fill-opacity:1;fill-rule:nonzero;stroke:none" /></g><g
           transform="translate(452.8623,397.9287)"
           id="g3060"><path
             d="m 0,0 0,-0.44 c 0,-0.087 -0.069,-0.144 -0.143,-0.144 l -1.262,0 c -0.627,0 -1.122,-0.511 -1.122,-1.135 l 0,-2.146 c 0.016,0.157 0.183,0.27 0.398,0.27 l 1.648,0 0,-0.426 c 0,-0.086 -0.073,-0.155 -0.159,-0.155 l -1.887,0 0,-6.349 c 0,-0.087 -0.071,-0.157 -0.142,-0.157 l -0.501,0 0,8.906 C -3.17,-0.797 -2.385,0 -1.405,0 L 0,0 z"
             id="path3062"
             style="fill:#808385;fill-opacity:1;fill-rule:nonzero;stroke:none" /></g><g
           transform="translate(454.6064,394.3481)"
           id="g3064"><path
             d="m 0,0 0.484,0 c 0.087,0 0.158,-0.057 0.158,-0.142 l 0,-6.959 -0.483,0 C 0.073,-7.101 0,-7.032 0,-6.945 L 0,0 z m 0,3.155 0.501,0 c 0.084,0 0.141,-0.072 0.141,-0.143 l 0,-0.668 -0.499,0 C 0.057,2.344 0,2.401 0,2.485 l 0,0.67 z"
             id="path3066"
             style="fill:#808385;fill-opacity:1;fill-rule:nonzero;stroke:none" /></g><g
           transform="translate(458.1406,394.3481)"
           id="g3068"><path
             d="M 0,0 0,-0.469 C 0,-0.469 0.286,0 1.252,0 l 1.618,0 0,-0.44 c 0,-0.086 -0.071,-0.142 -0.156,-0.142 l -1.747,0 C -0.025,-0.582 0,-1.604 0,-1.604 l 0,-5.497 -0.639,0 0,7.101 L 0,0 z"
             id="path3070"
             style="fill:#808385;fill-opacity:1;fill-rule:nonzero;stroke:none" /></g><g
           transform="translate(471.0937,392.5742)"
           id="g3072"><path
             d="m 0,0 0,-5.327 -0.498,0 c -0.083,0 -0.154,0.069 -0.154,0.156 l 0,5.226 c 0,0.626 -0.496,1.137 -1.108,1.137 l -2.246,0 c 0.131,-0.057 0.227,-0.213 0.227,-0.397 l 0,-6.122 -0.482,0 c -0.082,0 -0.156,0.069 -0.156,0.156 l 0,6.107 c 0,0.142 -0.113,0.256 -0.255,0.256 l -2.715,0 c -0.082,0 -0.158,-0.071 -0.158,-0.157 l 0,-6.206 c 0,-0.087 -0.067,-0.156 -0.154,-0.156 l -0.482,0 0,6.476 c 0,0.341 0.287,0.639 0.626,0.639 l 5.795,0 C -0.795,1.788 0,0.979 0,0"
             id="path3074"
             style="fill:#808385;fill-opacity:1;fill-rule:nonzero;stroke:none" /></g><g
           transform="translate(478.7568,394.2065)"
           id="g3076"><path
             d="m 0,0 0,-8.637 c 0,-0.994 -0.78,-1.788 -1.76,-1.788 l -3.552,0 0,0.44 c 0,0.085 0.072,0.156 0.143,0.156 l 3.409,0 c 0.624,0 1.123,0.496 1.123,1.122 l 0,1.961 c -0.06,-0.129 -0.2,-0.2 -0.385,-0.2 l -2.784,-0.013 c -1.192,0 -1.744,0.808 -1.744,1.79 l 0,5.311 0.485,0 c 0.084,0 0.153,-0.058 0.153,-0.142 l 0,-5.184 c 0,-0.625 0.268,-1.18 1.106,-1.18 l 2.912,0 c 0.143,0 0.257,0.114 0.257,0.257 l 0,6.249 0.482,0 C -0.07,0.142 0,0.084 0,0"
             id="path3078"
             style="fill:#808385;fill-opacity:1;fill-rule:nonzero;stroke:none" /></g><g
           transform="translate(481.623,387.9141)"
           id="g3080"><path
             d="m 0,0 0,-0.667 -0.55,0 c -0.099,0 -0.182,0.084 -0.182,0.184 l 0,0.668 0.551,0 C -0.082,0.185 0,0.099 0,0"
             id="path3082"
             style="fill:#808385;fill-opacity:1;fill-rule:nonzero;stroke:none" /></g><g
           transform="translate(488.8555,392.6294)"
           id="g3084"><path
             d="m 0,0 c 0,0.625 -0.498,1.137 -1.127,1.137 l -3.165,0 0,-4.346 0,-1.335 c 0.014,-0.128 0.113,-0.228 0.239,-0.243 l 2.926,0 C -0.498,-4.787 0,-4.276 0,-3.65 L 0,0 z m 0.638,-0.03 0,-3.62 c 0,-0.995 -0.782,-1.732 -1.765,-1.732 l -2.769,0 c -0.193,0 -0.371,0.112 -0.396,0.27 l 0,-3.581 c 0,-0.083 -0.07,-0.155 -0.156,-0.155 l -0.482,0 0,10.412 c 0,0.083 0.071,0.155 0.157,0.155 l 3.646,0 c 0.983,0 1.765,-0.724 1.765,-1.749"
             id="path3086"
             style="fill:#808385;fill-opacity:1;fill-rule:nonzero;stroke:none" /></g><g
           transform="translate(491.6123,397.3174)"
           id="g3088"><path
             d="m 0,0 0.481,0 c 0.081,0 0.157,-0.073 0.157,-0.157 l 0,-9.9 -0.483,0 C 0.069,-10.057 0,-10.001 0,-9.914 L 0,0 z"
             id="path3090"
             style="fill:#808385;fill-opacity:1;fill-rule:nonzero;stroke:none" /></g><g
           transform="translate(349.6382,393.0889)"
           id="g3092"><path
             d="M 0,0 C 6.517,-1.685 11.038,-5.842 13.977,-12.552 13.005,-6.089 9.902,-0.382 5.452,3.91 3.452,2.928 1.598,1.631 0,0"
             id="path3094"
             style="fill:#636d78;fill-opacity:1;fill-rule:nonzero;stroke:none" /></g><g
           transform="translate(366.4722,380.8228)"
           id="g3096"><path
             d="M 0,0 C 0.399,0.484 0.767,0.979 1.124,1.485 1.232,1.637 1.348,1.784 1.451,1.937 1.867,2.552 2.255,3.18 2.618,3.818 2.747,4.044 2.864,4.274 2.987,4.503 3.225,4.95 3.455,5.407 3.668,5.865 3.791,6.125 3.914,6.383 4.029,6.647 4.302,7.28 4.554,7.921 4.784,8.571 4.87,8.812 4.937,9.057 5.012,9.299 5.115,9.628 5.212,9.96 5.305,10.292 4.647,11.94 3.713,13.444 2.571,14.759 -0.422,13.063 -2.667,10.206 -3.515,6.781 -3.281,6.073 -3.072,5.356 -2.892,4.627 -2.89,4.613 -2.887,4.6 -2.883,4.585 c 0.18,-0.73 0.336,-1.47 0.455,-2.222 0.004,-0.009 0.004,-0.016 0.004,-0.025 0.109,-0.668 0.189,-1.345 0.248,-2.029 0.014,-0.158 0.03,-0.318 0.041,-0.476 0.052,-0.706 0.09,-1.416 0.09,-2.134 0.571,0.573 1.102,1.168 1.617,1.775 C -0.282,-0.354 -0.139,-0.177 0,0"
             id="path3098"
             style="fill:#43b2c7;fill-opacity:1;fill-rule:nonzero;stroke:none" /></g><g
           transform="translate(369.0435,395.5781)"
           id="g3100"><path
             d="m 0,0 c -2.857,3.285 -7.052,5.368 -11.742,5.368 -1.086,0 -2.146,-0.113 -3.169,-0.325 4.038,-3.405 7.125,-7.895 8.825,-13.018 C -5.239,-4.55 -2.994,-1.692 0,0"
             id="path3102"
             style="fill:#57c8e2;fill-opacity:1;fill-rule:nonzero;stroke:none" /></g><g
           transform="translate(369.0435,395.5806)"
           id="g3104"><path
             d="m 0,0 c 1.142,-1.315 2.076,-2.818 2.733,-4.465 0.541,1.929 0.904,3.898 1.04,5.883 C 2.421,1.154 1.159,0.656 0,0"
             id="path3106"
             style="fill:#aee2fa;fill-opacity:1;fill-rule:nonzero;stroke:none" /></g><g
           transform="translate(357.3013,400.9463)"
           id="g3108"><path
             d="m 0,0 c 4.69,0 8.882,-2.083 11.738,-5.366 l 0.004,10e-4 0,-10e-4 c 1.159,0.657 2.422,1.155 3.774,1.418 0,0 0.514,3.637 -0.908,9.466 C 7.295,7.469 -0.637,6.503 -7.343,2.626 -5.862,1.771 -4.471,0.774 -3.166,-0.325 -2.146,-0.113 -1.085,0 0,0"
             id="path3110"
             style="fill:#636d78;fill-opacity:1;fill-rule:nonzero;stroke:none" /></g><g
           transform="translate(387.4346,193.5967)"
           id="g3112"><path
             d="m 0,0 0.485,0 c 0.082,0 0.157,-0.059 0.157,-0.143 l 0,-6.959 -0.487,0 C 0.073,-7.102 0,-7.031 0,-6.944 L 0,0 z m 0,3.151 0.495,0 c 0.087,0 0.147,-0.069 0.147,-0.139 l 0,-0.67 -0.499,0 C 0.056,2.342 0,2.399 0,2.486 l 0,0.665 z"
             id="path3114"
             style="fill:#ffffff;fill-opacity:1;fill-rule:nonzero;stroke:none" /></g><g
           transform="translate(395.3564,191.876)"
           id="g3116"><path
             d="m 0,0 c 0,0.626 -0.508,1.137 -1.119,1.137 l -3.112,0 c -0.083,0 -0.153,-0.071 -0.153,-0.158 l 0,-6.203 c 0,-0.087 -0.071,-0.157 -0.159,-0.157 l -0.482,0 0,6.476 c 0,0.341 0.285,0.639 0.625,0.639 l 3.281,0 c 0.963,0 1.757,-0.807 1.757,-1.789 l 0,-5.326 -0.492,0 C 0.073,-5.381 0,-5.311 0,-5.224 L 0,0 z"
             id="path3118"
             style="fill:#ffffff;fill-opacity:1;fill-rule:nonzero;stroke:none" /></g><g
           transform="translate(406.3105,193.6104)"
           id="g3120"><path
             d="m 0,0 0,-6.478 c 0,-0.355 -0.281,-0.637 -0.638,-0.637 l -5.782,0 c -0.979,0 -1.76,0.794 -1.76,1.79 l 0,5.325 0.48,0 c 0.088,0 0.16,-0.072 0.16,-0.156 l 0,-5.241 c 0,-0.612 0.498,-1.123 1.12,-1.123 l 2.233,0 c -0.131,0.042 -0.23,0.199 -0.23,0.398 l 0,6.122 0.495,0 c 0.089,0 0.146,-0.072 0.146,-0.156 l 0,-6.108 c 0,-0.143 0.113,-0.256 0.252,-0.256 l 2.73,0 c 0.087,0 0.14,0.071 0.14,0.156 l 0,6.208 c 0,0.084 0.072,0.156 0.16,0.156 L 0,0 z"
             id="path3122"
             style="fill:#ffffff;fill-opacity:1;fill-rule:nonzero;stroke:none" /></g><g
           transform="translate(410.1543,193.0127)"
           id="g3124"><path
             d="m 0,0 c -0.611,0 -1.081,-0.511 -1.081,-1.137 l 0,-1.334 c 0,-0.084 0.061,-0.142 0.158,-0.157 l 4.248,0 0,1.491 C 3.325,-0.511 2.856,0 2.246,0 L 0,0 z m -1.717,-4.8 0,3.677 c 0,1.066 0.753,1.707 1.717,1.707 l 2.246,0 c 0.966,0 1.719,-0.641 1.719,-1.707 l 0,-1.93 c 0,-0.099 -0.069,-0.17 -0.158,-0.17 l -4.561,0 c -0.126,0 -0.239,0.071 -0.309,0.17 l -0.018,0 0,-1.733 c 0,-0.625 0.499,-1.122 1.123,-1.122 l 3.652,0 c 0.086,0 0.159,-0.07 0.159,-0.156 l 0,-0.454 -3.811,0 c -0.976,0 -1.759,0.638 -1.759,1.718"
             id="path3126"
             style="fill:#ffffff;fill-opacity:1;fill-rule:nonzero;stroke:none" /></g><g
           transform="translate(420.9551,189.166)"
           id="g3128"><path
             d="M 0,0 -4.434,1.589 C -4.646,1.66 -4.816,1.903 -4.816,2.13 l 0,0.709 c 0,0.98 0.781,1.592 1.76,1.592 l 3.266,0 0,-0.429 C 0.21,3.92 0.14,3.847 0.054,3.847 l -3.11,0 c -0.624,0 -1.122,-0.396 -1.122,-1.023 l 0,-0.524 c 0,-0.085 0.071,-0.17 0.143,-0.2 L 0.367,0.51 C 0.579,0.439 0.751,0.198 0.751,-0.029 l 0,-1.081 c 0,-0.993 -0.794,-1.561 -1.761,-1.561 l -3.822,0 0,0.439 c 0,0.086 0.072,0.157 0.156,0.157 l 3.666,0 c 0.609,0 1.15,0.341 1.15,0.953 l 0,0.923 C 0.14,-0.114 0.067,-0.015 0,0"
             id="path3130"
             style="fill:#ffffff;fill-opacity:1;fill-rule:nonzero;stroke:none" /></g><g
           transform="translate(426.9912,186.9336)"
           id="g3132"><path
             d="m 0,0 0,-0.438 -1.406,0 c -0.98,0 -1.76,0.793 -1.76,1.79 l 0,8.889 0.481,0 c 0.086,0 0.158,-0.071 0.158,-0.157 l 0,-3.706 c 0.013,0.155 0.197,0.268 0.398,0.268 l 1.73,0 0,-0.425 c 0,-0.086 -0.069,-0.156 -0.152,-0.156 l -1.976,0 0,-4.786 c 0,-0.611 0.497,-1.122 1.121,-1.122 l 1.266,0 C -0.067,0.157 0,0.087 0,0"
             id="path3134"
             style="fill:#ffffff;fill-opacity:1;fill-rule:nonzero;stroke:none" /></g><g
           transform="translate(428.7139,193.6104)"
           id="g3136"><path
             d="m 0,0 0.479,0 c 0.086,0 0.16,-0.072 0.16,-0.156 l 0,-5.241 c 0,-0.625 0.492,-1.123 1.119,-1.123 l 2.145,0 c 0.612,0 1.11,0.498 1.11,1.123 l 0,5.241 C 5.013,-0.072 5.082,0 5.166,0 l 0.485,0 0,-5.342 c 0,-0.979 -0.783,-1.773 -1.748,-1.773 l -2.145,0 C 0.781,-7.115 0,-6.321 0,-5.342 L 0,0 z"
             id="path3138"
             style="fill:#ffffff;fill-opacity:1;fill-rule:nonzero;stroke:none" /></g><g
           transform="translate(436.501,196.748)"
           id="g3140"><path
             d="m 0,0 0.5,0 c 0.085,0 0.142,-0.069 0.142,-0.14 l 0,-0.67 -0.5,0 C 0.059,-0.81 0,-0.752 0,-0.665 L 0,0 z m -1.405,-13.277 c 0,0.082 0.071,0.155 0.156,0.155 l 0.194,0 c 0.613,0 1.114,0.494 1.114,1.122 l 0,8.849 0.496,0 c 0.087,0 0.142,-0.059 0.142,-0.143 l 0,-8.636 c 0,-0.995 -0.783,-1.79 -1.752,-1.79 l -0.35,0 0,0.443 z"
             id="path3142"
             style="fill:#ffffff;fill-opacity:1;fill-rule:nonzero;stroke:none" /></g><g
           transform="translate(447.541,193.6104)"
           id="g3144"><path
             d="m 0,0 0,-6.478 c 0,-0.355 -0.282,-0.637 -0.637,-0.637 l -5.779,0 c -0.98,0 -1.765,0.794 -1.765,1.79 l 0,5.325 0.485,0 c 0.087,0 0.157,-0.072 0.157,-0.156 l 0,-5.241 c 0,-0.612 0.494,-1.123 1.123,-1.123 l 2.228,0 c -0.129,0.042 -0.23,0.199 -0.23,0.398 l 0,6.122 0.502,0 c 0.083,0 0.144,-0.072 0.144,-0.156 l 0,-6.108 c 0,-0.143 0.112,-0.256 0.251,-0.256 l 2.728,0 c 0.085,0 0.143,0.071 0.143,0.156 l 0,6.208 C -0.65,-0.072 -0.578,0 -0.498,0 L 0,0 z"
             id="path3146"
             style="fill:#ffffff;fill-opacity:1;fill-rule:nonzero;stroke:none" /></g><g
           transform="translate(452.8623,197.1748)"
           id="g3148"><path
             d="m 0,0 0,-0.44 c 0,-0.086 -0.069,-0.141 -0.143,-0.141 l -1.262,0 c -0.627,0 -1.122,-0.511 -1.122,-1.137 l 0,-2.145 c 0.016,0.155 0.183,0.267 0.398,0.267 l 1.648,0 0,-0.425 c 0,-0.085 -0.073,-0.155 -0.159,-0.155 l -1.887,0 0,-6.346 c 0,-0.087 -0.071,-0.158 -0.142,-0.158 l -0.501,0 0,8.906 C -3.17,-0.795 -2.385,0 -1.405,0 L 0,0 z"
             id="path3150"
             style="fill:#ffffff;fill-opacity:1;fill-rule:nonzero;stroke:none" /></g><g
           transform="translate(454.6064,193.5967)"
           id="g3152"><path
             d="m 0,0 0.484,0 c 0.087,0 0.158,-0.059 0.158,-0.143 l 0,-6.959 -0.483,0 C 0.073,-7.102 0,-7.031 0,-6.944 L 0,0 z m 0,3.151 0.501,0 c 0.084,0 0.141,-0.069 0.141,-0.139 l 0,-0.67 -0.499,0 C 0.057,2.342 0,2.399 0,2.486 l 0,0.665 z"
             id="path3154"
             style="fill:#ffffff;fill-opacity:1;fill-rule:nonzero;stroke:none" /></g><g
           transform="translate(458.1406,193.5967)"
           id="g3156"><path
             d="M 0,0 0,-0.47 C 0,-0.47 0.286,0 1.252,0 l 1.618,0 0,-0.442 c 0,-0.086 -0.071,-0.142 -0.156,-0.142 l -1.747,0 C -0.025,-0.584 0,-1.606 0,-1.606 l 0,-5.496 -0.639,0 0,7.102 L 0,0 z"
             id="path3158"
             style="fill:#ffffff;fill-opacity:1;fill-rule:nonzero;stroke:none" /></g><g
           transform="translate(471.0937,191.8213)"
           id="g3160"><path
             d="m 0,0 0,-5.326 -0.498,0 c -0.083,0 -0.154,0.07 -0.154,0.157 l 0,5.224 c 0,0.626 -0.496,1.136 -1.108,1.136 l -2.246,0 c 0.131,-0.056 0.227,-0.21 0.227,-0.395 l 0,-6.122 -0.482,0 c -0.082,0 -0.156,0.07 -0.156,0.157 l 0,6.105 c 0,0.143 -0.113,0.255 -0.255,0.255 l -2.715,0 c -0.082,0 -0.158,-0.07 -0.158,-0.157 l 0,-6.203 c 0,-0.087 -0.067,-0.157 -0.154,-0.157 l -0.482,0 0,6.475 c 0,0.341 0.287,0.64 0.626,0.64 l 5.795,0 C -0.795,1.789 0,0.981 0,0"
             id="path3162"
             style="fill:#ffffff;fill-opacity:1;fill-rule:nonzero;stroke:none" /></g><g
           transform="translate(478.7568,193.4541)"
           id="g3164"><path
             d="m 0,0 0,-8.636 c 0,-0.995 -0.78,-1.79 -1.76,-1.79 l -3.552,0 0,0.443 c 0,0.082 0.072,0.155 0.143,0.155 l 3.409,0 c 0.624,0 1.123,0.494 1.123,1.122 l 0,1.959 c -0.06,-0.129 -0.2,-0.198 -0.385,-0.198 l -2.784,-0.014 c -1.192,0 -1.744,0.808 -1.744,1.79 l 0,5.312 0.485,0 c 0.084,0 0.153,-0.059 0.153,-0.143 l 0,-5.186 c 0,-0.625 0.268,-1.177 1.106,-1.177 l 2.912,0 c 0.143,0 0.257,0.112 0.257,0.256 l 0,6.25 0.482,0 C -0.07,0.143 0,0.084 0,0"
             id="path3166"
             style="fill:#ffffff;fill-opacity:1;fill-rule:nonzero;stroke:none" /></g><g
           transform="translate(481.623,187.1611)"
           id="g3168"><path
             d="m 0,0 0,-0.666 -0.55,0 c -0.099,0 -0.182,0.083 -0.182,0.183 l 0,0.669 0.551,0 C -0.082,0.186 0,0.1 0,0"
             id="path3170"
             style="fill:#ffffff;fill-opacity:1;fill-rule:nonzero;stroke:none" /></g><g
           transform="translate(488.8555,191.876)"
           id="g3172"><path
             d="m 0,0 c 0,0.626 -0.498,1.137 -1.127,1.137 l -3.165,0 0,-4.344 0,-1.336 c 0.014,-0.13 0.113,-0.228 0.239,-0.242 l 2.926,0 C -0.498,-4.785 0,-4.274 0,-3.649 L 0,0 z m 0.638,-0.028 0,-3.621 c 0,-0.995 -0.782,-1.732 -1.765,-1.732 l -2.769,0 c -0.193,0 -0.371,0.113 -0.396,0.27 l 0,-3.582 c 0,-0.081 -0.07,-0.155 -0.156,-0.155 l -0.482,0 0,10.413 c 0,0.082 0.071,0.156 0.157,0.156 l 3.646,0 c 0.983,0 1.765,-0.724 1.765,-1.749"
             id="path3174"
             style="fill:#ffffff;fill-opacity:1;fill-rule:nonzero;stroke:none" /></g><g
           transform="translate(491.6123,196.5654)"
           id="g3176"><path
             d="m 0,0 0.481,0 c 0.081,0 0.157,-0.071 0.157,-0.158 l 0,-9.899 -0.483,0 C 0.069,-10.057 0,-10 0,-9.913 L 0,0 z"
             id="path3178"
             style="fill:#ffffff;fill-opacity:1;fill-rule:nonzero;stroke:none" /></g><g
           transform="translate(349.6382,192.3359)"
           id="g3180"><path
             d="M 0,0 C 6.517,-1.685 11.038,-5.841 13.977,-12.553 13.005,-6.089 9.902,-0.379 5.452,3.911 3.452,2.929 1.598,1.632 0,0"
             id="path3182"
             style="fill:#ffffff;fill-opacity:1;fill-rule:nonzero;stroke:none" /></g><g
           transform="translate(366.4722,180.0703)"
           id="g3184"><path
             d="M 0,0 C 0.399,0.482 0.767,0.979 1.124,1.485 1.232,1.636 1.348,1.785 1.451,1.938 1.867,2.554 2.255,3.18 2.618,3.817 2.747,4.044 2.864,4.274 2.987,4.501 3.225,4.95 3.455,5.406 3.668,5.864 3.791,6.125 3.914,6.382 4.029,6.646 4.302,7.281 4.554,7.922 4.784,8.571 4.87,8.813 4.937,9.056 5.012,9.301 5.115,9.627 5.212,9.96 5.305,10.292 4.647,11.938 3.713,13.443 2.571,14.758 -0.422,13.064 -2.667,10.205 -3.515,6.78 -3.281,6.073 -3.072,5.355 -2.892,4.628 -2.89,4.611 -2.887,4.6 -2.883,4.585 c 0.18,-0.731 0.336,-1.469 0.455,-2.224 0.004,-0.006 0.004,-0.014 0.004,-0.023 0.109,-0.668 0.189,-1.345 0.248,-2.029 0.014,-0.16 0.03,-0.318 0.041,-0.477 0.052,-0.704 0.09,-1.415 0.09,-2.133 0.571,0.574 1.102,1.167 1.617,1.775 C -0.282,-0.354 -0.139,-0.178 0,0"
             id="path3186"
             style="fill:#43b2c7;fill-opacity:1;fill-rule:nonzero;stroke:none" /></g><g
           transform="translate(369.0435,194.8262)"
           id="g3188"><path
             d="m 0,0 c -2.857,3.285 -7.052,5.367 -11.742,5.367 -1.086,0 -2.146,-0.112 -3.169,-0.323 4.038,-3.405 7.125,-7.898 8.825,-13.02 C -5.239,-4.551 -2.994,-1.692 0,0"
             id="path3190"
             style="fill:#57c8e2;fill-opacity:1;fill-rule:nonzero;stroke:none" /></g><g
           transform="translate(369.0435,194.8281)"
           id="g3192"><path
             d="m 0,0 c 1.142,-1.314 2.076,-2.819 2.733,-4.466 0.541,1.929 0.904,3.899 1.04,5.885 C 2.421,1.154 1.159,0.655 0,0"
             id="path3194"
             style="fill:#aee2fa;fill-opacity:1;fill-rule:nonzero;stroke:none" /></g><g
           transform="translate(357.3013,200.1934)"
           id="g3196"><path
             d="m 0,0 c 4.69,0 8.882,-2.082 11.738,-5.365 l 0.004,0 c 1.159,0.655 2.422,1.154 3.774,1.419 0,0 0.514,3.636 -0.908,9.464 C 7.295,7.47 -0.637,6.503 -7.343,2.628 -5.862,1.771 -4.471,0.774 -3.166,-0.323 -2.146,-0.112 -1.085,0 0,0"
             id="path3198"
             style="fill:#ffffff;fill-opacity:1;fill-rule:nonzero;stroke:none" /></g><g
           transform="translate(694.543,187.6572)"
           id="g3200"><path
             d="M 0,0 C 18.976,-4.909 32.14,-17.016 40.695,-36.557 37.865,-17.732 28.834,-1.11 15.87,11.388 10.048,8.529 4.649,4.748 0,0 z"
             id="path3202"
             style="fill:none;stroke:#858789;stroke-width:0.25;stroke-linecap:butt;stroke-linejoin:miter;stroke-miterlimit:10;stroke-opacity:1;stroke-dasharray:none" /></g><g
           transform="translate(743.5586,151.9375)"
           id="g3204"><path
             d="m 0,0 c 1.163,1.406 2.235,2.853 3.271,4.32 0.32,0.445 0.659,0.874 0.955,1.32 1.209,1.79 2.345,3.62 3.397,5.475 0.378,0.658 0.718,1.331 1.073,1.997 0.695,1.301 1.361,2.634 1.982,3.967 0.359,0.754 0.718,1.506 1.057,2.275 0.794,1.848 1.529,3.714 2.195,5.6 0.253,0.704 0.445,1.418 0.669,2.127 0.296,0.953 0.577,1.923 0.846,2.89 -1.913,4.794 -4.631,9.177 -7.959,13.009 -8.712,-4.939 -15.256,-13.257 -17.72,-23.238 0.677,-2.056 1.29,-4.146 1.814,-6.267 0.007,-0.042 0.017,-0.079 0.026,-0.122 0.525,-2.131 0.978,-4.285 1.326,-6.47 0.009,-0.029 0.009,-0.047 0.009,-0.075 0.319,-1.947 0.551,-3.919 0.722,-5.911 0.042,-0.458 0.089,-0.92 0.122,-1.384 0.153,-2.059 0.26,-4.124 0.26,-6.213 1.66,1.667 3.208,3.398 4.709,5.165 C -0.821,-1.03 -0.404,-0.516 0,0 z"
             id="path3206"
             style="fill:none;stroke:#858789;stroke-width:0.25;stroke-linecap:butt;stroke-linejoin:miter;stroke-miterlimit:10;stroke-opacity:1;stroke-dasharray:none" /></g><g
           transform="translate(751.0449,194.9053)"
           id="g3208"><path
             d="m 0,0 c -8.313,9.564 -20.536,15.629 -34.19,15.629 -3.16,0 -6.247,-0.33 -9.226,-0.941 11.759,-9.917 20.743,-22.997 25.695,-37.914 C -15.256,-13.245 -8.712,-4.927 0,0 z"
             id="path3210"
             style="fill:none;stroke:#858789;stroke-width:0.25;stroke-linecap:butt;stroke-linejoin:miter;stroke-miterlimit:10;stroke-opacity:1;stroke-dasharray:none" /></g><g
           transform="translate(751.0449,194.9141)"
           id="g3212"><path
             d="m 0,0 c 3.328,-3.833 6.046,-8.212 7.959,-13.006 1.581,5.62 2.63,11.351 3.029,17.137 C 7.054,3.361 3.378,1.907 0,0 z"
             id="path3214"
             style="fill:none;stroke:#858789;stroke-width:0.25;stroke-linecap:butt;stroke-linejoin:miter;stroke-miterlimit:10;stroke-opacity:1;stroke-dasharray:none" /></g><g
           transform="translate(716.8545,210.5342)"
           id="g3216"><path
             d="m 0,0 c 13.654,0 25.86,-6.064 34.181,-15.62 l 0.009,0.004 0,-0.004 c 3.378,1.907 7.054,3.361 10.989,4.131 0,0 1.501,10.586 -2.642,27.559 C 21.24,21.753 -1.861,18.942 -21.386,7.653 -17.074,5.156 -13.019,2.257 -9.216,-0.94 -6.246,-0.33 -3.159,0 0,0 z"
             id="path3218"
             style="fill:none;stroke:#858789;stroke-width:0.25;stroke-linecap:butt;stroke-linejoin:miter;stroke-miterlimit:10;stroke-opacity:1;stroke-dasharray:none" /></g><g
           transform="translate(734.5352,383.0801)"
           id="g3220"><path
             d="M 0,0 C 0.4,0.914 0.832,1.81 1.305,2.688 1.333,2.744 1.361,2.8 1.392,2.855 1.87,3.741 2.395,4.6 2.946,5.443 3.032,5.576 3.113,5.71 3.202,5.841 3.75,6.654 4.327,7.447 4.934,8.217 c 0.099,0.129 0.202,0.255 0.304,0.381 0.631,0.78 1.289,1.54 1.981,2.27 0.062,0.065 0.128,0.127 0.187,0.19 1.492,1.553 3.121,2.981 4.867,4.27 0.042,0.03 0.081,0.063 0.124,0.093 0.89,0.649 1.81,1.26 2.756,1.833 0.007,0.004 0.011,0.009 0.019,0.012 -0.241,0.265 -0.486,0.527 -0.731,0.785 -0.194,0.203 -0.384,0.409 -0.582,0.607 -0.375,0.377 -0.758,0.743 -1.145,1.105 -0.181,0.172 -0.364,0.347 -0.548,0.514 -0.411,0.375 -0.83,0.735 -1.256,1.092 -0.169,0.144 -0.339,0.292 -0.511,0.434 -0.448,0.363 -0.903,0.714 -1.361,1.06 -0.163,0.122 -0.321,0.249 -0.486,0.369 -0.474,0.35 -0.962,0.684 -1.449,1.012 -0.155,0.106 -0.311,0.215 -0.468,0.318 -0.499,0.329 -1.01,0.642 -1.523,0.95 -0.154,0.091 -0.302,0.188 -0.458,0.278 -0.523,0.306 -1.056,0.594 -1.591,0.878 -0.151,0.08 -0.299,0.165 -0.451,0.244 -0.538,0.276 -1.086,0.537 -1.633,0.792 -0.157,0.072 -0.308,0.151 -0.468,0.222 -0.547,0.246 -1.102,0.476 -1.661,0.7 -0.163,0.066 -0.325,0.138 -0.49,0.202 -0.549,0.215 -1.109,0.411 -1.671,0.604 -0.174,0.06 -0.347,0.126 -0.524,0.185 -0.555,0.182 -1.112,0.345 -1.676,0.507 -0.186,0.053 -0.374,0.114 -0.56,0.165 -0.551,0.15 -1.105,0.279 -1.658,0.409 -0.208,0.046 -0.411,0.102 -0.615,0.146 -0.545,0.118 -1.096,0.216 -1.644,0.312 -0.22,0.039 -0.438,0.088 -0.659,0.123 -0.547,0.089 -1.098,0.156 -1.652,0.223 -0.225,0.028 -0.449,0.065 -0.675,0.09 -0.572,0.061 -1.149,0.099 -1.724,0.139 -0.209,0.014 -0.414,0.039 -0.621,0.049 -0.785,0.043 -1.573,0.064 -2.362,0.064 -1.093,0 -2.189,-0.055 -3.282,-0.136 -0.226,-0.017 -0.453,-0.031 -0.679,-0.052 -1.055,-0.093 -2.108,-0.221 -3.159,-0.389 -0.064,-0.011 -0.131,-0.025 -0.196,-0.036 10.674,-9.394 18.815,-21.275 23.707,-34.585 0.03,0.09 0.069,0.175 0.1,0.265 0.317,0.944 0.665,1.874 1.053,2.786 C -0.093,-0.201 -0.044,-0.101 0,0"
             id="path3222"
             style="fill:#bec0c2;fill-opacity:1;fill-rule:nonzero;stroke:none" /></g><g
           transform="translate(756.6787,390.248)"
           id="g3224"><path
             d="m 0,0 c -0.547,1.089 -1.142,2.157 -1.777,3.201 -0.134,0.219 -0.288,0.427 -0.425,0.644 -0.517,0.813 -1.042,1.617 -1.612,2.4 -0.215,0.293 -0.452,0.573 -0.673,0.863 -0.43,0.563 -0.869,1.12 -1.33,1.665 C -6.422,8.416 -7.013,8.038 -7.591,7.647 -7.895,7.444 -8.209,7.257 -8.503,7.044 -9.164,6.57 -9.789,6.054 -10.413,5.54 c -0.316,-0.263 -0.65,-0.508 -0.957,-0.78 -0.574,-0.506 -1.109,-1.052 -1.65,-1.593 -0.316,-0.318 -0.647,-0.616 -0.952,-0.943 -0.504,-0.546 -0.967,-1.125 -1.437,-1.698 -0.293,-0.358 -0.608,-0.699 -0.887,-1.067 -0.465,-0.612 -0.88,-1.259 -1.306,-1.9 -0.237,-0.358 -0.499,-0.701 -0.723,-1.067 -0.556,-0.908 -1.06,-1.847 -1.533,-2.801 -0.158,-0.316 -0.3,-0.639 -0.445,-0.962 -0.408,-0.881 -0.802,-1.771 -1.134,-2.688 -0.153,-0.421 -0.258,-0.859 -0.397,-1.285 -0.221,-0.687 -0.45,-1.371 -0.631,-2.071 0.674,-2.062 1.263,-4.104 1.75,-6.076 0.593,-2.418 1.03,-4.557 1.366,-6.662 l 0.02,-0.208 c 0.299,-1.747 0.538,-3.702 0.719,-5.839 l 0.022,-0.235 c 0.037,-0.386 0.073,-0.774 0.101,-1.162 0.115,-1.545 0.191,-2.919 0.23,-4.204 1.018,1.083 2.076,2.274 3.243,3.645 0.418,0.495 0.826,1.003 1.227,1.511 1.038,1.26 2.067,2.618 3.244,4.286 l 0.364,0.497 c 0.198,0.267 0.394,0.532 0.576,0.803 1.198,1.772 2.331,3.595 3.366,5.425 0.263,0.458 0.507,0.918 0.747,1.379 l 0.315,0.598 c 0.706,1.324 1.368,2.643 1.963,3.924 l 0.084,0.179 c 0.327,0.689 0.655,1.378 0.964,2.08 0.794,1.845 1.524,3.712 2.172,5.542 0.165,0.458 0.303,0.917 0.438,1.377 l 0.22,0.721 c 0.263,0.845 0.517,1.706 0.758,2.568 C 1.018,-2.167 0.577,-1.183 0.098,-0.215 0.062,-0.145 0.034,-0.07 0,0"
             id="path3226"
             style="fill:#bec0c2;fill-opacity:1;fill-rule:nonzero;stroke:none" /></g><g
           transform="translate(696.1865,393.3354)"
           id="g3228"><path
             d="M 0,0 C 16.351,-4.614 28.517,-14.726 37.012,-30.796 33.462,-15.328 25.607,-1.362 14.065,9.919 8.796,7.269 4.071,3.938 0,0"
             id="path3230"
             style="fill:#bec0c2;fill-opacity:1;fill-rule:nonzero;stroke:none" /></g><g
           transform="translate(759.2256,402.7144)"
           id="g3232"><path
             d="m 0,0 c -0.739,-0.217 -1.474,-0.46 -2.208,-0.73 -0.091,-0.034 -0.187,-0.061 -0.277,-0.095 -0.827,-0.312 -1.644,-0.661 -2.459,-1.038 -0.237,-0.111 -0.472,-0.235 -0.71,-0.35 -0.398,-0.194 -0.793,-0.404 -1.187,-0.613 0.47,-0.567 0.91,-1.151 1.351,-1.735 0.155,-0.205 0.324,-0.402 0.475,-0.61 0.678,-0.929 1.312,-1.886 1.916,-2.857 0.2,-0.322 0.385,-0.653 0.577,-0.979 0.416,-0.704 0.812,-1.417 1.186,-2.14 0.19,-0.361 0.374,-0.723 0.551,-1.088 0.122,-0.249 0.258,-0.491 0.374,-0.743 1.146,4.531 1.909,9.04 2.279,13.45 C 1.517,0.39 1.164,0.312 0.813,0.218 0.542,0.146 0.27,0.079 0,0"
             id="path3234"
             style="fill:#bec0c2;fill-opacity:1;fill-rule:nonzero;stroke:none" /></g><g
           transform="translate(737.6084,433.8477)"
           id="g3236"><path
             d="m 0,0 c -14.179,0 -28.128,-3.603 -40.442,-10.437 3.649,-2.205 7.243,-4.776 10.707,-7.662 0.323,0.063 0.652,0.111 0.979,0.169 0.365,0.062 0.732,0.133 1.101,0.187 0.45,0.068 0.904,0.119 1.355,0.174 0.311,0.037 0.62,0.082 0.932,0.112 0.524,0.054 1.053,0.087 1.58,0.122 0.243,0.016 0.481,0.04 0.724,0.053 0.769,0.038 1.54,0.059 2.31,0.059 0.825,0 1.65,-0.024 2.472,-0.068 0.306,-0.016 0.617,-0.051 0.925,-0.073 0.506,-0.038 1.012,-0.071 1.517,-0.124 0.417,-0.045 0.832,-0.111 1.247,-0.167 0.39,-0.053 0.781,-0.096 1.171,-0.159 0.468,-0.076 0.937,-0.173 1.401,-0.264 0.33,-0.064 0.66,-0.117 0.987,-0.188 0.497,-0.108 0.99,-0.236 1.486,-0.361 0.288,-0.073 0.58,-0.136 0.867,-0.215 0.518,-0.14 1.029,-0.303 1.542,-0.462 0.258,-0.079 0.517,-0.151 0.773,-0.235 0.528,-0.174 1.051,-0.369 1.574,-0.562 0.232,-0.086 0.467,-0.165 0.697,-0.254 0.533,-0.207 1.056,-0.433 1.581,-0.66 0.214,-0.093 0.434,-0.178 0.647,-0.275 0.526,-0.237 1.047,-0.494 1.564,-0.752 0.205,-0.099 0.411,-0.194 0.613,-0.298 0.516,-0.266 1.024,-0.551 1.531,-0.837 0.197,-0.111 0.397,-0.216 0.59,-0.328 0.502,-0.292 0.995,-0.602 1.483,-0.913 0.193,-0.123 0.39,-0.24 0.581,-0.366 0.478,-0.313 0.947,-0.643 1.415,-0.975 0.196,-0.139 0.396,-0.273 0.59,-0.417 0.448,-0.328 0.887,-0.673 1.324,-1.019 0.205,-0.161 0.412,-0.319 0.614,-0.483 0.416,-0.343 0.823,-0.698 1.23,-1.054 0.212,-0.186 0.426,-0.369 0.636,-0.559 0.38,-0.348 0.752,-0.709 1.125,-1.07 0.22,-0.218 0.447,-0.431 0.666,-0.653 0.341,-0.348 0.674,-0.707 1.007,-1.068 0.168,-0.179 0.342,-0.35 0.505,-0.533 l 0.015,0.009 0.006,-0.009 c 0.474,0.255 0.947,0.477 1.424,0.711 0.29,0.142 0.576,0.3 0.869,0.435 0.857,0.398 1.722,0.764 2.588,1.091 0.024,0.01 0.048,0.022 0.071,0.031 0.89,0.335 1.786,0.625 2.686,0.887 0.297,0.086 0.598,0.149 0.896,0.229 0.495,0.128 0.988,0.27 1.485,0.377 0.226,2.411 0.807,12.05 -2.571,26.159 C 14.208,-0.907 7.12,0 0,0"
             id="path3238"
             style="fill:#bec0c2;fill-opacity:1;fill-rule:nonzero;stroke:none" /></g></g></g></g></svg>